<?xml version="1.0" encoding="UTF-8" standalone="no"?>
<!DOCTYPE svg PUBLIC "-//W3C//DTD SVG 1.1//EN"
 "http://www.w3.org/Graphics/SVG/1.1/DTD/svg11.dtd">
<!-- Generated by graphviz version 5.0.0 (20220707.1540)
 -->
<!-- Title: dependencies Pages: 1 -->
<svg width="1138pt" height="247pt"
 viewBox="0.00 0.00 1138.00 246.80" xmlns="http://www.w3.org/2000/svg" xmlns:xlink="http://www.w3.org/1999/xlink">
<g id="graph0" class="graph" transform="scale(1 1) rotate(0) translate(4 242.8)">
<title>dependencies</title>
<polygon fill="white" stroke="transparent" points="-4,4 -4,-242.8 1134,-242.8 1134,4 -4,4"/>
<text text-anchor="middle" x="565" y="-8.2" font-family="sans-serif" font-size="14.00">dependencies</text>
<g id="clust1" class="cluster">
<title>cluster_AppModule</title>
<polygon fill="none" stroke="black" stroke-dasharray="1,5" points="8,-32.8 8,-230.8 1122,-230.8 1122,-32.8 8,-32.8"/>
</g>
<g id="clust2" class="cluster">
<title>cluster_AppModule_declarations</title>
<polygon fill="none" stroke="black" points="168,-40.8 168,-92.8 1114,-92.8 1114,-40.8 168,-40.8"/>
</g>
<g id="clust10" class="cluster">
<title>cluster_AppModule_imports</title>
<polygon fill="none" stroke="black" points="16,-40.8 16,-92.8 160,-92.8 160,-40.8 16,-40.8"/>
</g>
<g id="clust12" class="cluster">
<title>cluster_AppModule_bootstrap</title>
<polygon fill="none" stroke="black" points="528,-170.8 528,-222.8 652,-222.8 652,-170.8 528,-170.8"/>
</g>
<!-- AboutComponent -->
<g id="node1" class="node">
<title>AboutComponent</title>
<polygon fill="#ffffb3" stroke="black" points="1106.33,-84.8 989.67,-84.8 989.67,-48.8 1106.33,-48.8 1106.33,-84.8"/>
<text text-anchor="middle" x="1048" y="-62.6" font-family="Times,serif" font-size="14.00">AboutComponent</text>
</g>
<!-- AppModule -->
<g id="node8" class="node">
<title>AppModule</title>
<polygon fill="#8dd3c7" stroke="black" points="631.66,-149.8 628.66,-153.8 607.66,-153.8 604.66,-149.8 548.34,-149.8 548.34,-113.8 631.66,-113.8 631.66,-149.8"/>
<text text-anchor="middle" x="590" y="-127.6" font-family="Times,serif" font-size="14.00">AppModule</text>
</g>
<!-- AboutComponent&#45;&gt;AppModule -->
<g id="edge1" class="edge">
<title>AboutComponent&#45;&gt;AppModule</title>
<path fill="none" stroke="black" d="M1048,-85.09C1048,-107.01 1048,-140.8 1048,-140.8 1048,-140.8 641.86,-140.8 641.86,-140.8"/>
<polygon fill="black" stroke="black" points="641.86,-137.3 631.86,-140.8 641.86,-144.3 641.86,-137.3"/>
</g>
<!-- AppComponent -->
<g id="node2" class="node">
<title>AppComponent</title>
<polygon fill="#ffffb3" stroke="black" points="971.94,-84.8 866.06,-84.8 866.06,-48.8 971.94,-48.8 971.94,-84.8"/>
<text text-anchor="middle" x="919" y="-62.6" font-family="Times,serif" font-size="14.00">AppComponent</text>
</g>
<!-- AppComponent&#45;&gt;AppModule -->
<g id="edge2" class="edge">
<title>AppComponent&#45;&gt;AppModule</title>
<path fill="none" stroke="black" d="M919,-84.91C919,-104.14 919,-131.8 919,-131.8 919,-131.8 641.67,-131.8 641.67,-131.8"/>
<polygon fill="black" stroke="black" points="641.67,-128.3 631.67,-131.8 641.67,-135.3 641.67,-128.3"/>
</g>
<!-- BlogComponent -->
<g id="node3" class="node">
<title>BlogComponent</title>
<polygon fill="#ffffb3" stroke="black" points="848.06,-84.8 739.94,-84.8 739.94,-48.8 848.06,-48.8 848.06,-84.8"/>
<text text-anchor="middle" x="794" y="-62.6" font-family="Times,serif" font-size="14.00">BlogComponent</text>
</g>
<!-- BlogComponent&#45;&gt;AppModule -->
<g id="edge3" class="edge">
<title>BlogComponent&#45;&gt;AppModule</title>
<path fill="none" stroke="black" d="M794,-84.83C794,-101.2 794,-122.8 794,-122.8 794,-122.8 641.77,-122.8 641.77,-122.8"/>
<polygon fill="black" stroke="black" points="641.77,-119.3 631.77,-122.8 641.77,-126.3 641.77,-119.3"/>
</g>
<!-- ContactComponent -->
<g id="node4" class="node">
<title>ContactComponent</title>
<polygon fill="#ffffb3" stroke="black" points="721.38,-84.8 596.62,-84.8 596.62,-48.8 721.38,-48.8 721.38,-84.8"/>
<text text-anchor="middle" x="659" y="-62.6" font-family="Times,serif" font-size="14.00">ContactComponent</text>
</g>
<!-- ContactComponent&#45;&gt;AppModule -->
<g id="edge4" class="edge">
<title>ContactComponent&#45;&gt;AppModule</title>
<path fill="none" stroke="black" d="M614.2,-84.91C614.2,-84.91 614.2,-103.79 614.2,-103.79"/>
<polygon fill="black" stroke="black" points="610.7,-103.79 614.2,-113.79 617.7,-103.79 610.7,-103.79"/>
</g>
<!-- HomeComponent -->
<g id="node5" class="node">
<title>HomeComponent</title>
<polygon fill="#ffffb3" stroke="black" points="578.55,-84.8 463.45,-84.8 463.45,-48.8 578.55,-48.8 578.55,-84.8"/>
<text text-anchor="middle" x="521" y="-62.6" font-family="Times,serif" font-size="14.00">HomeComponent</text>
</g>
<!-- HomeComponent&#45;&gt;AppModule -->
<g id="edge5" class="edge">
<title>HomeComponent&#45;&gt;AppModule</title>
<path fill="none" stroke="black" d="M563.47,-84.91C563.47,-84.91 563.47,-103.79 563.47,-103.79"/>
<polygon fill="black" stroke="black" points="559.97,-103.79 563.47,-113.79 566.97,-103.79 559.97,-103.79"/>
</g>
<!-- NavbarComponent -->
<g id="node6" class="node">
<title>NavbarComponent</title>
<polygon fill="#ffffb3" stroke="black" points="445.03,-84.8 322.97,-84.8 322.97,-48.8 445.03,-48.8 445.03,-84.8"/>
<text text-anchor="middle" x="384" y="-62.6" font-family="Times,serif" font-size="14.00">NavbarComponent</text>
</g>
<!-- NavbarComponent&#45;&gt;AppModule -->
<g id="edge6" class="edge">
<title>NavbarComponent&#45;&gt;AppModule</title>
<path fill="none" stroke="black" d="M384,-84.83C384,-101.2 384,-122.8 384,-122.8 384,-122.8 538.31,-122.8 538.31,-122.8"/>
<polygon fill="black" stroke="black" points="538.31,-126.3 548.31,-122.8 538.31,-119.3 538.31,-126.3"/>
</g>
<!-- ServicesComponent -->
<g id="node7" class="node">
<title>ServicesComponent</title>
<polygon fill="#ffffb3" stroke="black" points="304.26,-84.8 175.74,-84.8 175.74,-48.8 304.26,-48.8 304.26,-84.8"/>
<text text-anchor="middle" x="240" y="-62.6" font-family="Times,serif" font-size="14.00">ServicesComponent</text>
</g>
<!-- ServicesComponent&#45;&gt;AppModule -->
<g id="edge7" class="edge">
<title>ServicesComponent&#45;&gt;AppModule</title>
<path fill="none" stroke="black" d="M240,-84.91C240,-104.14 240,-131.8 240,-131.8 240,-131.8 538.13,-131.8 538.13,-131.8"/>
<polygon fill="black" stroke="black" points="538.13,-135.3 548.13,-131.8 538.13,-128.3 538.13,-135.3"/>
</g>
<!-- AppComponent  -->
<g id="node10" class="node">
<title>AppComponent </title>
<polygon fill="#80b1d3" stroke="black" points="644.44,-214.8 535.56,-214.8 535.56,-178.8 644.44,-178.8 644.44,-214.8"/>
<text text-anchor="middle" x="590" y="-192.6" font-family="Times,serif" font-size="14.00">AppComponent </text>
</g>
<!-- AppModule&#45;&gt;AppComponent  -->
<g id="edge9" class="edge">
<title>AppModule&#45;&gt;AppComponent </title>
<path fill="none" stroke="black" stroke-dasharray="1,5" d="M590,-149.91C590,-149.91 590,-168.79 590,-168.79"/>
<polygon fill="black" stroke="black" points="586.5,-168.79 590,-178.79 593.5,-168.79 586.5,-168.79"/>
</g>
<!-- AppRoutingModule -->
<g id="node9" class="node">
<title>AppRoutingModule</title>
<polygon fill="#8dd3c7" stroke="black" points="152.28,-84.8 149.28,-88.8 128.28,-88.8 125.28,-84.8 23.72,-84.8 23.72,-48.8 152.28,-48.8 152.28,-84.8"/>
<text text-anchor="middle" x="88" y="-62.6" font-family="Times,serif" font-size="14.00">AppRoutingModule</text>
</g>
<!-- AppRoutingModule&#45;&gt;AppModule -->
<g id="edge8" class="edge">
<title>AppRoutingModule&#45;&gt;AppModule</title>
<path fill="none" stroke="black" d="M88,-85.09C88,-107.01 88,-140.8 88,-140.8 88,-140.8 538.06,-140.8 538.06,-140.8"/>
<polygon fill="black" stroke="black" points="538.06,-144.3 548.06,-140.8 538.06,-137.3 538.06,-144.3"/>
</g>
</g>
</svg>
