<?xml version="1.0" encoding="UTF-8" standalone="no"?>
<!DOCTYPE svg PUBLIC "-//W3C//DTD SVG 1.1//EN"
 "http://www.w3.org/Graphics/SVG/1.1/DTD/svg11.dtd">
<!-- Generated by graphviz version 5.0.0 (20220707.1540)
 -->
<!-- Title: dependencies Pages: 1 -->
<svg width="1274pt" height="247pt"
 viewBox="0.00 0.00 1274.00 246.80" xmlns="http://www.w3.org/2000/svg" xmlns:xlink="http://www.w3.org/1999/xlink">
<g id="graph0" class="graph" transform="scale(1 1) rotate(0) translate(4 242.8)">
<title>dependencies</title>
<polygon fill="white" stroke="transparent" points="-4,4 -4,-242.8 1270,-242.8 1270,4 -4,4"/>
<text text-anchor="middle" x="633" y="-8.2" font-family="sans-serif" font-size="14.00">dependencies</text>
<g id="clust1" class="cluster">
<title>cluster_AppModule</title>
<polygon fill="none" stroke="black" stroke-dasharray="1,5" points="8,-32.8 8,-230.8 1258,-230.8 1258,-32.8 8,-32.8"/>
</g>
<g id="clust11" class="cluster">
<title>cluster_AppModule_imports</title>
<polygon fill="none" stroke="black" points="1106,-40.8 1106,-92.8 1250,-92.8 1250,-40.8 1106,-40.8"/>
</g>
<g id="clust13" class="cluster">
<title>cluster_AppModule_bootstrap</title>
<polygon fill="none" stroke="black" points="581,-170.8 581,-222.8 705,-222.8 705,-170.8 581,-170.8"/>
</g>
<g id="clust2" class="cluster">
<title>cluster_AppModule_declarations</title>
<polygon fill="none" stroke="black" points="16,-40.8 16,-92.8 1098,-92.8 1098,-40.8 16,-40.8"/>
</g>
<!-- AboutComponent -->
<g id="node1" class="node">
<title>AboutComponent</title>
<polygon fill="#ffffb3" stroke="black" points="1090.33,-84.8 973.67,-84.8 973.67,-48.8 1090.33,-48.8 1090.33,-84.8"/>
<text text-anchor="middle" x="1032" y="-62.6" font-family="Times,serif" font-size="14.00">AboutComponent</text>
</g>
<!-- AppModule -->
<g id="node9" class="node">
<title>AppModule</title>
<polygon fill="#8dd3c7" stroke="black" points="684.66,-149.8 681.66,-153.8 660.66,-153.8 657.66,-149.8 601.34,-149.8 601.34,-113.8 684.66,-113.8 684.66,-149.8"/>
<text text-anchor="middle" x="643" y="-127.6" font-family="Times,serif" font-size="14.00">AppModule</text>
</g>
<!-- AboutComponent&#45;&gt;AppModule -->
<g id="edge1" class="edge">
<title>AboutComponent&#45;&gt;AppModule</title>
<path fill="none" stroke="black" d="M1032,-84.93C1032,-105.37 1032,-135.8 1032,-135.8 1032,-135.8 695,-135.8 695,-135.8"/>
<polygon fill="black" stroke="black" points="695,-132.3 685,-135.8 695,-139.3 695,-132.3"/>
</g>
<!-- AppComponent -->
<g id="node2" class="node">
<title>AppComponent</title>
<polygon fill="#ffffb3" stroke="black" points="955.94,-84.8 850.06,-84.8 850.06,-48.8 955.94,-48.8 955.94,-84.8"/>
<text text-anchor="middle" x="903" y="-62.6" font-family="Times,serif" font-size="14.00">AppComponent</text>
</g>
<!-- AppComponent&#45;&gt;AppModule -->
<g id="edge2" class="edge">
<title>AppComponent&#45;&gt;AppModule</title>
<path fill="none" stroke="black" d="M903,-85.07C903,-103.36 903,-128.8 903,-128.8 903,-128.8 694.77,-128.8 694.77,-128.8"/>
<polygon fill="black" stroke="black" points="694.77,-125.3 684.77,-128.8 694.77,-132.3 694.77,-125.3"/>
</g>
<!-- BlogComponent -->
<g id="node3" class="node">
<title>BlogComponent</title>
<polygon fill="#ffffb3" stroke="black" points="832.06,-84.8 723.94,-84.8 723.94,-48.8 832.06,-48.8 832.06,-84.8"/>
<text text-anchor="middle" x="778" y="-62.6" font-family="Times,serif" font-size="14.00">BlogComponent</text>
</g>
<!-- BlogComponent&#45;&gt;AppModule -->
<g id="edge3" class="edge">
<title>BlogComponent&#45;&gt;AppModule</title>
<path fill="none" stroke="black" d="M778,-84.81C778,-100.85 778,-121.8 778,-121.8 778,-121.8 694.97,-121.8 694.97,-121.8"/>
<polygon fill="black" stroke="black" points="694.97,-118.3 684.97,-121.8 694.97,-125.3 694.97,-118.3"/>
</g>
<!-- ContactComponent -->
<g id="node4" class="node">
<title>ContactComponent</title>
<polygon fill="#ffffb3" stroke="black" points="705.38,-84.8 580.62,-84.8 580.62,-48.8 705.38,-48.8 705.38,-84.8"/>
<text text-anchor="middle" x="643" y="-62.6" font-family="Times,serif" font-size="14.00">ContactComponent</text>
</g>
<!-- ContactComponent&#45;&gt;AppModule -->
<g id="edge4" class="edge">
<title>ContactComponent&#45;&gt;AppModule</title>
<path fill="none" stroke="black" d="M643,-84.91C643,-84.91 643,-103.79 643,-103.79"/>
<polygon fill="black" stroke="black" points="639.5,-103.79 643,-113.79 646.5,-103.79 639.5,-103.79"/>
</g>
<!-- FooterComponent -->
<g id="node5" class="node">
<title>FooterComponent</title>
<polygon fill="#ffffb3" stroke="black" points="562.88,-84.8 445.12,-84.8 445.12,-48.8 562.88,-48.8 562.88,-84.8"/>
<text text-anchor="middle" x="504" y="-62.6" font-family="Times,serif" font-size="14.00">FooterComponent</text>
</g>
<!-- FooterComponent&#45;&gt;AppModule -->
<g id="edge5" class="edge">
<title>FooterComponent&#45;&gt;AppModule</title>
<path fill="none" stroke="black" d="M504,-84.81C504,-100.85 504,-121.8 504,-121.8 504,-121.8 591.3,-121.8 591.3,-121.8"/>
<polygon fill="black" stroke="black" points="591.3,-125.3 601.3,-121.8 591.3,-118.3 591.3,-125.3"/>
</g>
<!-- HomeComponent -->
<g id="node6" class="node">
<title>HomeComponent</title>
<polygon fill="#ffffb3" stroke="black" points="426.55,-84.8 311.45,-84.8 311.45,-48.8 426.55,-48.8 426.55,-84.8"/>
<text text-anchor="middle" x="369" y="-62.6" font-family="Times,serif" font-size="14.00">HomeComponent</text>
</g>
<!-- HomeComponent&#45;&gt;AppModule -->
<g id="edge6" class="edge">
<title>HomeComponent&#45;&gt;AppModule</title>
<path fill="none" stroke="black" d="M369,-85.07C369,-103.36 369,-128.8 369,-128.8 369,-128.8 591.09,-128.8 591.09,-128.8"/>
<polygon fill="black" stroke="black" points="591.09,-132.3 601.09,-128.8 591.09,-125.3 591.09,-132.3"/>
</g>
<!-- NavbarComponent -->
<g id="node7" class="node">
<title>NavbarComponent</title>
<polygon fill="#ffffb3" stroke="black" points="293.03,-84.8 170.97,-84.8 170.97,-48.8 293.03,-48.8 293.03,-84.8"/>
<text text-anchor="middle" x="232" y="-62.6" font-family="Times,serif" font-size="14.00">NavbarComponent</text>
</g>
<!-- NavbarComponent&#45;&gt;AppModule -->
<g id="edge7" class="edge">
<title>NavbarComponent&#45;&gt;AppModule</title>
<path fill="none" stroke="black" d="M232,-84.93C232,-105.37 232,-135.8 232,-135.8 232,-135.8 591.33,-135.8 591.33,-135.8"/>
<polygon fill="black" stroke="black" points="591.33,-139.3 601.33,-135.8 591.33,-132.3 591.33,-139.3"/>
</g>
<!-- ServicesComponent -->
<g id="node8" class="node">
<title>ServicesComponent</title>
<polygon fill="#ffffb3" stroke="black" points="152.26,-84.8 23.74,-84.8 23.74,-48.8 152.26,-48.8 152.26,-84.8"/>
<text text-anchor="middle" x="88" y="-62.6" font-family="Times,serif" font-size="14.00">ServicesComponent</text>
</g>
<!-- ServicesComponent&#45;&gt;AppModule -->
<g id="edge8" class="edge">
<title>ServicesComponent&#45;&gt;AppModule</title>
<path fill="none" stroke="black" d="M88,-84.81C88,-107.29 88,-142.8 88,-142.8 88,-142.8 591.28,-142.8 591.28,-142.8"/>
<polygon fill="black" stroke="black" points="591.28,-146.3 601.28,-142.8 591.28,-139.3 591.28,-146.3"/>
</g>
<!-- AppComponent  -->
<g id="node11" class="node">
<title>AppComponent </title>
<polygon fill="#80b1d3" stroke="black" points="697.44,-214.8 588.56,-214.8 588.56,-178.8 697.44,-178.8 697.44,-214.8"/>
<text text-anchor="middle" x="643" y="-192.6" font-family="Times,serif" font-size="14.00">AppComponent </text>
</g>
<!-- AppModule&#45;&gt;AppComponent  -->
<g id="edge10" class="edge">
<title>AppModule&#45;&gt;AppComponent </title>
<path fill="none" stroke="black" stroke-dasharray="1,5" d="M643,-149.91C643,-149.91 643,-168.79 643,-168.79"/>
<polygon fill="black" stroke="black" points="639.5,-168.79 643,-178.79 646.5,-168.79 639.5,-168.79"/>
</g>
<!-- AppRoutingModule -->
<g id="node10" class="node">
<title>AppRoutingModule</title>
<polygon fill="#8dd3c7" stroke="black" points="1242.28,-84.8 1239.28,-88.8 1218.28,-88.8 1215.28,-84.8 1113.72,-84.8 1113.72,-48.8 1242.28,-48.8 1242.28,-84.8"/>
<text text-anchor="middle" x="1178" y="-62.6" font-family="Times,serif" font-size="14.00">AppRoutingModule</text>
</g>
<!-- AppRoutingModule&#45;&gt;AppModule -->
<g id="edge9" class="edge">
<title>AppRoutingModule&#45;&gt;AppModule</title>
<path fill="none" stroke="black" d="M1178,-84.81C1178,-107.29 1178,-142.8 1178,-142.8 1178,-142.8 694.98,-142.8 694.98,-142.8"/>
<polygon fill="black" stroke="black" points="694.98,-139.3 684.98,-142.8 694.98,-146.3 694.98,-139.3"/>
</g>
</g>
</svg>
