<?xml version="1.0" encoding="UTF-8" standalone="no"?>
<!DOCTYPE svg PUBLIC "-//W3C//DTD SVG 1.1//EN"
 "http://www.w3.org/Graphics/SVG/1.1/DTD/svg11.dtd">
<!-- Generated by graphviz version 5.0.0 (20220707.1540)
 -->
<!-- Title: dependencies Pages: 1 -->
<svg width="1138pt" height="247pt"
 viewBox="0.00 0.00 1138.00 246.80" xmlns="http://www.w3.org/2000/svg" xmlns:xlink="http://www.w3.org/1999/xlink">
<g id="graph0" class="graph" transform="scale(1 1) rotate(0) translate(4 242.8)">
<title>dependencies</title>
<polygon fill="white" stroke="transparent" points="-4,4 -4,-242.8 1134,-242.8 1134,4 -4,4"/>
<text text-anchor="middle" x="565" y="-8.2" font-family="sans-serif" font-size="14.00">dependencies</text>
<g id="clust1" class="cluster">
<title>cluster_AppModule</title>
<polygon fill="none" stroke="black" stroke-dasharray="1,5" points="8,-32.8 8,-230.8 1122,-230.8 1122,-32.8 8,-32.8"/>
</g>
<g id="clust10" class="cluster">
<title>cluster_AppModule_imports</title>
<polygon fill="none" stroke="black" points="970,-40.8 970,-92.8 1114,-92.8 1114,-40.8 970,-40.8"/>
</g>
<g id="clust12" class="cluster">
<title>cluster_AppModule_bootstrap</title>
<polygon fill="none" stroke="black" points="512,-170.8 512,-222.8 636,-222.8 636,-170.8 512,-170.8"/>
</g>
<g id="clust2" class="cluster">
<title>cluster_AppModule_declarations</title>
<polygon fill="none" stroke="black" points="16,-40.8 16,-92.8 962,-92.8 962,-40.8 16,-40.8"/>
</g>
<!-- AboutComponent -->
<g id="node1" class="node">
<title>AboutComponent</title>
<polygon fill="#ffffb3" stroke="black" points="954.33,-84.8 837.67,-84.8 837.67,-48.8 954.33,-48.8 954.33,-84.8"/>
<text text-anchor="middle" x="896" y="-62.6" font-family="Times,serif" font-size="14.00">AboutComponent</text>
</g>
<!-- AppModule -->
<g id="node8" class="node">
<title>AppModule</title>
<polygon fill="#8dd3c7" stroke="black" points="615.66,-149.8 612.66,-153.8 591.66,-153.8 588.66,-149.8 532.34,-149.8 532.34,-113.8 615.66,-113.8 615.66,-149.8"/>
<text text-anchor="middle" x="574" y="-127.6" font-family="Times,serif" font-size="14.00">AppModule</text>
</g>
<!-- AboutComponent&#45;&gt;AppModule -->
<g id="edge1" class="edge">
<title>AboutComponent&#45;&gt;AppModule</title>
<path fill="none" stroke="black" d="M896,-84.91C896,-104.14 896,-131.8 896,-131.8 896,-131.8 625.77,-131.8 625.77,-131.8"/>
<polygon fill="black" stroke="black" points="625.77,-128.3 615.77,-131.8 625.77,-135.3 625.77,-128.3"/>
</g>
<!-- AppComponent -->
<g id="node2" class="node">
<title>AppComponent</title>
<polygon fill="#ffffb3" stroke="black" points="819.94,-84.8 714.06,-84.8 714.06,-48.8 819.94,-48.8 819.94,-84.8"/>
<text text-anchor="middle" x="767" y="-62.6" font-family="Times,serif" font-size="14.00">AppComponent</text>
</g>
<!-- AppComponent&#45;&gt;AppModule -->
<g id="edge2" class="edge">
<title>AppComponent&#45;&gt;AppModule</title>
<path fill="none" stroke="black" d="M767,-84.83C767,-101.2 767,-122.8 767,-122.8 767,-122.8 625.88,-122.8 625.88,-122.8"/>
<polygon fill="black" stroke="black" points="625.88,-119.3 615.88,-122.8 625.88,-126.3 625.88,-119.3"/>
</g>
<!-- BlogComponent -->
<g id="node3" class="node">
<title>BlogComponent</title>
<polygon fill="#ffffb3" stroke="black" points="696.06,-84.8 587.94,-84.8 587.94,-48.8 696.06,-48.8 696.06,-84.8"/>
<text text-anchor="middle" x="642" y="-62.6" font-family="Times,serif" font-size="14.00">BlogComponent</text>
</g>
<!-- BlogComponent&#45;&gt;AppModule -->
<g id="edge3" class="edge">
<title>BlogComponent&#45;&gt;AppModule</title>
<path fill="none" stroke="black" d="M601.78,-84.91C601.78,-84.91 601.78,-103.79 601.78,-103.79"/>
<polygon fill="black" stroke="black" points="598.28,-103.79 601.78,-113.79 605.28,-103.79 598.28,-103.79"/>
</g>
<!-- ContactComponent -->
<g id="node4" class="node">
<title>ContactComponent</title>
<polygon fill="#ffffb3" stroke="black" points="569.38,-84.8 444.62,-84.8 444.62,-48.8 569.38,-48.8 569.38,-84.8"/>
<text text-anchor="middle" x="507" y="-62.6" font-family="Times,serif" font-size="14.00">ContactComponent</text>
</g>
<!-- ContactComponent&#45;&gt;AppModule -->
<g id="edge4" class="edge">
<title>ContactComponent&#45;&gt;AppModule</title>
<path fill="none" stroke="black" d="M550.8,-84.91C550.8,-84.91 550.8,-103.79 550.8,-103.79"/>
<polygon fill="black" stroke="black" points="547.3,-103.79 550.8,-113.79 554.3,-103.79 547.3,-103.79"/>
</g>
<!-- HomeComponent -->
<g id="node5" class="node">
<title>HomeComponent</title>
<polygon fill="#ffffb3" stroke="black" points="426.55,-84.8 311.45,-84.8 311.45,-48.8 426.55,-48.8 426.55,-84.8"/>
<text text-anchor="middle" x="369" y="-62.6" font-family="Times,serif" font-size="14.00">HomeComponent</text>
</g>
<!-- HomeComponent&#45;&gt;AppModule -->
<g id="edge5" class="edge">
<title>HomeComponent&#45;&gt;AppModule</title>
<path fill="none" stroke="black" d="M369,-84.83C369,-101.2 369,-122.8 369,-122.8 369,-122.8 522.02,-122.8 522.02,-122.8"/>
<polygon fill="black" stroke="black" points="522.02,-126.3 532.02,-122.8 522.02,-119.3 522.02,-126.3"/>
</g>
<!-- NavbarComponent -->
<g id="node6" class="node">
<title>NavbarComponent</title>
<polygon fill="#ffffb3" stroke="black" points="293.03,-84.8 170.97,-84.8 170.97,-48.8 293.03,-48.8 293.03,-84.8"/>
<text text-anchor="middle" x="232" y="-62.6" font-family="Times,serif" font-size="14.00">NavbarComponent</text>
</g>
<!-- NavbarComponent&#45;&gt;AppModule -->
<g id="edge6" class="edge">
<title>NavbarComponent&#45;&gt;AppModule</title>
<path fill="none" stroke="black" d="M232,-84.91C232,-104.14 232,-131.8 232,-131.8 232,-131.8 522.06,-131.8 522.06,-131.8"/>
<polygon fill="black" stroke="black" points="522.06,-135.3 532.06,-131.8 522.06,-128.3 522.06,-135.3"/>
</g>
<!-- ServicesComponent -->
<g id="node7" class="node">
<title>ServicesComponent</title>
<polygon fill="#ffffb3" stroke="black" points="152.26,-84.8 23.74,-84.8 23.74,-48.8 152.26,-48.8 152.26,-84.8"/>
<text text-anchor="middle" x="88" y="-62.6" font-family="Times,serif" font-size="14.00">ServicesComponent</text>
</g>
<!-- ServicesComponent&#45;&gt;AppModule -->
<g id="edge7" class="edge">
<title>ServicesComponent&#45;&gt;AppModule</title>
<path fill="none" stroke="black" d="M88,-85.09C88,-107.01 88,-140.8 88,-140.8 88,-140.8 522.14,-140.8 522.14,-140.8"/>
<polygon fill="black" stroke="black" points="522.14,-144.3 532.14,-140.8 522.14,-137.3 522.14,-144.3"/>
</g>
<!-- AppComponent  -->
<g id="node10" class="node">
<title>AppComponent </title>
<polygon fill="#80b1d3" stroke="black" points="628.44,-214.8 519.56,-214.8 519.56,-178.8 628.44,-178.8 628.44,-214.8"/>
<text text-anchor="middle" x="574" y="-192.6" font-family="Times,serif" font-size="14.00">AppComponent </text>
</g>
<!-- AppModule&#45;&gt;AppComponent  -->
<g id="edge9" class="edge">
<title>AppModule&#45;&gt;AppComponent </title>
<path fill="none" stroke="black" stroke-dasharray="1,5" d="M574,-149.91C574,-149.91 574,-168.79 574,-168.79"/>
<polygon fill="black" stroke="black" points="570.5,-168.79 574,-178.79 577.5,-168.79 570.5,-168.79"/>
</g>
<!-- AppRoutingModule -->
<g id="node9" class="node">
<title>AppRoutingModule</title>
<polygon fill="#8dd3c7" stroke="black" points="1106.28,-84.8 1103.28,-88.8 1082.28,-88.8 1079.28,-84.8 977.72,-84.8 977.72,-48.8 1106.28,-48.8 1106.28,-84.8"/>
<text text-anchor="middle" x="1042" y="-62.6" font-family="Times,serif" font-size="14.00">AppRoutingModule</text>
</g>
<!-- AppRoutingModule&#45;&gt;AppModule -->
<g id="edge8" class="edge">
<title>AppRoutingModule&#45;&gt;AppModule</title>
<path fill="none" stroke="black" d="M1042,-85.09C1042,-107.01 1042,-140.8 1042,-140.8 1042,-140.8 625.94,-140.8 625.94,-140.8"/>
<polygon fill="black" stroke="black" points="625.94,-137.3 615.94,-140.8 625.94,-144.3 625.94,-137.3"/>
</g>
</g>
</svg>
